<svg width="48" height="48" viewBox="0 0 48 48" fill="none" xmlns="http://www.w3.org/2000/svg">
<rect width="48" height="48" fill="white"/>
<path d="M31.1799 40C31.1799 41.1457 30.1316 42.6445 27.357 43.9451C24.702 45.1896 20.9287 46 16.6799 46C12.4312 46 8.65787 45.1896 6.00288 43.9451C3.22833 42.6445 2.17994 41.1457 2.17994 40C2.17994 38.8543 3.22833 37.3555 6.00288 36.0549C8.65787 34.8104 12.4312 34 16.6799 34C20.9287 34 24.702 34.8104 27.357 36.0549C30.1316 37.3555 31.1799 38.8543 31.1799 40Z" fill="white" stroke="#152C5B" stroke-width="3"/>
<path d="M29.5 13.1746C29.5 16.5483 28.0028 23.428 25.5119 29.4962C24.2721 32.5163 22.8284 35.2286 21.2796 37.1585C19.69 39.1392 18.2343 40 17 40C15.7657 40 14.31 39.1392 12.7204 37.1585C11.1716 35.2286 9.72786 32.5163 8.48814 29.4962C5.99715 23.428 4.5 16.5483 4.5 13.1746C4.5 6.81146 10.0093 1.5 17 1.5C23.9907 1.5 29.5 6.81146 29.5 13.1746Z" fill="white" stroke="#152C5B" stroke-width="3"/>
<path d="M21.5 16C21.5 18.4853 19.4853 20.5 17 20.5C14.5147 20.5 12.5 18.4853 12.5 16C12.5 13.5147 14.5147 11.5 17 11.5C19.4853 11.5 21.5 13.5147 21.5 16Z" fill="white" stroke="#FF489B" stroke-width="3"/>
<circle cx="11.5" cy="16.5" r="0.5" fill="#C4C4C4"/>
</svg>
