<svg width="48" height="48" viewBox="0 0 48 48" fill="none" xmlns="http://www.w3.org/2000/svg">
<rect width="48" height="48" fill="white"/>
<mask id="path-1-inside-1" fill="white">
<path fill-rule="evenodd" clip-rule="evenodd" d="M18.3541 6C17.5363 6 16.8008 6.4979 16.4971 7.25722L14.6 12H8C3.58172 12 0 15.5817 0 20V34C0 38.4183 3.58172 42 8 42H40C44.4183 42 48 38.4183 48 34V20C48 15.5817 44.4183 12 40 12H33.6L31.9688 7.3393C31.688 6.53713 30.9309 6 30.081 6H18.3541Z"/>
</mask>
<path d="M16.4971 7.25722L19.2825 8.37139V8.37139L16.4971 7.25722ZM14.6 12V15H16.6311L17.3854 13.1142L14.6 12ZM33.6 12L30.7684 12.9911L31.4716 15H33.6V12ZM31.9688 7.3393L29.1372 8.33035V8.33035L31.9688 7.3393ZM19.2825 8.37139C19.1307 8.75105 18.763 9 18.3541 9V3C16.3095 3 14.471 4.24475 13.7117 6.14305L19.2825 8.37139ZM17.3854 13.1142L19.2825 8.37139L13.7117 6.14305L11.8146 10.8858L17.3854 13.1142ZM8 15H14.6V9H8V15ZM3 20C3 17.2386 5.23858 15 8 15V9C1.92487 9 -3 13.9249 -3 20H3ZM3 34V20H-3V34H3ZM8 39C5.23858 39 3 36.7614 3 34H-3C-3 40.0751 1.92487 45 8 45V39ZM40 39H8V45H40V39ZM45 34C45 36.7614 42.7614 39 40 39V45C46.0751 45 51 40.0751 51 34H45ZM45 20V34H51V20H45ZM40 15C42.7614 15 45 17.2386 45 20H51C51 13.9249 46.0751 9 40 9V15ZM33.6 15H40V9H33.6V15ZM29.1372 8.33035L30.7684 12.9911L36.4316 11.0089L34.8003 6.34825L29.1372 8.33035ZM30.081 9C29.6561 9 29.2776 8.73144 29.1372 8.33035L34.8003 6.34825C34.0984 4.34281 32.2058 3 30.081 3V9ZM18.3541 9H30.081V3H18.3541V9Z" fill="#152C5B" mask="url(#path-1-inside-1)"/>
<path d="M30.5 24C30.5 27.5899 27.5899 30.5 24 30.5C20.4101 30.5 17.5 27.5899 17.5 24C17.5 20.4101 20.4101 17.5 24 17.5C27.5899 17.5 30.5 20.4101 30.5 24Z" fill="white" stroke="#FF489B" stroke-width="3"/>
</svg>
